# xmcd
#
# Track frame offsets:
#	150
#	19282
#	38350
#	58584
#	76794
#	94973
#	116568
#	137599
#	154430
#	173931
#
# Disc length: 2532 seconds
#
# Revision: 0
# Processed by: cddbd v1.5.2PL0 Copyright (c) Steve Scherf et al.
# Submitted via: dBpowerAMP V4.0
#
DISCID=7a09e20a
DTITLE=Thien Kim - Ngo Nhu Tinh Da Quen Minh
DYEAR=1900
DGENRE=Ethnic
TTITLE0=Muon Mang
TTITLE1=Mot Minh Trong Dem
TTITLE2=Ngo Nhu Tinh Da Quen
TTITLE3=Van Mai Mong Cho
TTITLE4=Anh Con No Em
TTITLE5=Khoc Mat Thoang Nong Cay
TTITLE6=Doi Thay
TTITLE7=Dam Say Chachacha
TTITLE8=Mua Thu Tren Phim Dan
TTITLE9=Dung Nhac Den Tinh Yeu
EXTD=
EXTT0=
EXTT1=
EXTT2=
EXTT3=
EXTT4=
EXTT5=
EXTT6=
EXTT7=
EXTT8=
EXTT9=
PLAYORDER=
